<?xml version="1.0" encoding="UTF-8"?>
<svg xmlns="http://www.w3.org/2000/svg"
     viewBox="0 0 50 50"
     width="50"
     height="50"
     fill="currentColor">
  <g>
    <rect x="8.793" y="14" width="22" height="2"/>
    <rect x="8.793" y="20" width="22" height="2"/>
    <rect x="8.793" y="26" width="17" height="2"/>
    <rect x="8.793" y="32" width="12" height="2"/>
    <rect x="8.793" y="38" width="12" height="2"/>
    <path d="M38.793,18.586v-10L31.207,1H0.793v48h38V31.414L49.207,21l-6.414-6.414L38.793,18.586z
             M37.793,22.414L41.379,26l-12,12h-3.586v-3.586L37.793,22.414z
             M31.793,4.414L35.379,8h-3.586V4.414z
             M36.793,47h-34V3h27v7h7v10.586l-13,13V40h6.414l6.586-6.586V47z
             M42.793,24.586L39.207,21l3.586-3.586L46.379,21L42.793,24.586z"/>
  </g>
</svg>

